<svg viewBox="0 0 64 64" fill="none" xmlns="http://www.w3.org/2000/svg">
  <defs>
    <linearGradient id="bt-bg" x1="0" y1="0" x2="64" y2="64" gradientUnits="userSpaceOnUse">
      <stop offset="0%"   stop-color="#0E7A4F"/>
      <stop offset="48%"  stop-color="#1A4FC0"/>
      <stop offset="100%" stop-color="#6B21A8"/>
    </linearGradient>
    <linearGradient id="bt-shadow" x1="8" y1="48" x2="56" y2="64" gradientUnits="userSpaceOnUse">
      <stop offset="0%"   stop-color="#000" stop-opacity="0"/>
      <stop offset="100%" stop-color="#000" stop-opacity="0.28"/>
    </linearGradient>
    <linearGradient id="bt-pl" x1="14" y1="19" x2="32" y2="50" gradientUnits="userSpaceOnUse">
      <stop offset="0%"   stop-color="#FFFFFF"/>
      <stop offset="100%" stop-color="#DCF5EB"/>
    </linearGradient>
    <linearGradient id="bt-pr" x1="32" y1="19" x2="50" y2="50" gradientUnits="userSpaceOnUse">
      <stop offset="0%"   stop-color="#FFFFFF"/>
      <stop offset="100%" stop-color="#DDE8FF"/>
    </linearGradient>
    <radialGradient id="bt-glow" cx="32" cy="35" r="9" gradientUnits="userSpaceOnUse">
      <stop offset="0%"   stop-color="#7DD3FC" stop-opacity="0.85"/>
      <stop offset="100%" stop-color="#7DD3FC" stop-opacity="0"/>
    </radialGradient>
  </defs>

  <rect x="2" y="2" width="60" height="60" rx="15" fill="url(#bt-bg)"/>
  <rect x="2" y="2" width="60" height="60" rx="15" fill="url(#bt-shadow)"/>

  <path d="M13 22 Q13 19.5 15.5 18.5 Q22 16.5 32 21 L32 50 Q22 46.5 13 48 Z" fill="url(#bt-pl)"/>
  <path d="M51 22 Q51 19.5 48.5 18.5 Q42 16.5 32 21 L32 50 Q42 46.5 51 48 Z" fill="url(#bt-pr)"/>

  <ellipse cx="32" cy="35" rx="3.5" ry="15" fill="url(#bt-glow)"/>

  <line x1="17" y1="28" x2="28.5" y2="26.5" stroke="#7CA899" stroke-width="1.3" stroke-linecap="round" opacity="0.65"/>
  <line x1="17" y1="32" x2="28.5" y2="30.5" stroke="#7CA899" stroke-width="1.3" stroke-linecap="round" opacity="0.65"/>
  <line x1="17" y1="36" x2="28.5" y2="34.5" stroke="#7CA899" stroke-width="1.1" stroke-linecap="round" opacity="0.45"/>
  <line x1="17" y1="40" x2="26"   y2="38.5" stroke="#7CA899" stroke-width="1"   stroke-linecap="round" opacity="0.35"/>

  <line x1="35.5" y1="26.5" x2="47" y2="28" stroke="#8898B0" stroke-width="1.3" stroke-linecap="round" opacity="0.65"/>
  <line x1="35.5" y1="30.5" x2="47" y2="32" stroke="#8898B0" stroke-width="1.3" stroke-linecap="round" opacity="0.65"/>
  <line x1="35.5" y1="34.5" x2="47" y2="36" stroke="#8898B0" stroke-width="1.1" stroke-linecap="round" opacity="0.45"/>
  <line x1="38"   y1="38.5" x2="47" y2="40" stroke="#8898B0" stroke-width="1"   stroke-linecap="round" opacity="0.35"/>

  <path d="M44.5 12 L44.5 26.5 L41.5 23.8 L38.5 26.5 L38.5 12 Z" fill="#F5C430"/>

  <path d="M19.5 15.5 L20.4 17.9 L22.9 17.9 L20.9 19.4 L21.7 21.8 L19.5 20.3 L17.3 21.8 L18.1 19.4 L16.1 17.9 L18.6 17.9 Z" fill="#F5C430" opacity="0.95"/>
  <path d="M11.5 34 L12 35.2 L13.3 35.2 L12.3 36 L12.7 37.2 L11.5 36.4 L10.3 37.2 L10.7 36 L9.7 35.2 L11 35.2 Z" fill="#F5C430" opacity="0.55"/>
</svg>
